<?xml version="1.0" standalone="no"?>
<!DOCTYPE svg PUBLIC "-//W3C//DTD SVG 20010904//EN"
 "http://www.w3.org/TR/2001/REC-SVG-20010904/DTD/svg10.dtd">
<svg version="1.0" xmlns="http://www.w3.org/2000/svg"
 width="4958.000000pt" height="4958.000000pt" viewBox="0 0 4958.000000 4958.000000"
 preserveAspectRatio="xMidYMid meet">
<metadata>
Created by potrace 1.11, written by Peter Selinger 2001-2013
</metadata>
<g transform="translate(0.000000,4958.000000) scale(0.100000,-0.100000)"
fill="#000000" stroke="none">
<path d="M0 24790 l0 -15000 24790 0 24790 0 0 15000 0 15000 -24790 0 -24790
0 0 -15000z m24480 10599 c0 -6 8 -8 19 -4 25 8 190 8 466 0 540 -16 744 -25
800 -36 53 -11 91 -16 165 -23 25 -2 52 -7 60 -10 23 -8 253 -36 302 -36 24 0
60 -5 82 -11 56 -15 138 -30 246 -44 65 -8 301 -56 325 -65 20 -8 116 -29 235
-51 71 -13 252 -58 415 -104 33 -9 87 -23 120 -32 33 -9 72 -22 87 -29 15 -8
38 -14 52 -14 14 0 27 -4 30 -9 3 -5 22 -12 41 -15 19 -4 54 -16 77 -26 24
-11 53 -20 66 -20 21 0 80 -20 327 -112 150 -55 250 -97 310 -129 108 -57 130
-66 166 -73 39 -7 116 -36 224 -86 36 -16 68 -30 70 -30 6 0 342 -162 410
-197 28 -15 73 -38 100 -51 28 -14 64 -35 80 -47 17 -13 53 -34 80 -48 28 -14
75 -41 105 -60 30 -20 83 -52 118 -74 35 -21 77 -48 95 -60 18 -12 46 -28 62
-36 17 -8 43 -26 58 -41 15 -14 31 -26 34 -26 3 0 25 -14 50 -30 25 -17 91
-55 147 -86 55 -30 119 -68 141 -84 22 -16 60 -42 85 -57 25 -15 61 -40 80
-55 19 -15 90 -68 156 -117 67 -49 130 -96 140 -105 11 -8 49 -37 85 -63 64
-47 211 -167 254 -208 38 -36 127 -110 152 -126 14 -9 37 -30 51 -46 23 -24
159 -146 200 -178 7 -5 25 -23 40 -38 15 -16 75 -77 135 -135 183 -181 524
-524 573 -577 82 -90 199 -226 203 -238 2 -7 45 -59 95 -117 50 -58 107 -125
127 -150 20 -25 51 -61 68 -80 17 -19 31 -38 31 -42 0 -4 6 -13 13 -20 7 -7
44 -60 83 -118 39 -58 84 -125 101 -150 17 -25 61 -92 97 -150 36 -58 78 -122
92 -142 37 -50 98 -153 122 -204 11 -23 53 -92 94 -155 85 -129 149 -240 201
-349 20 -41 59 -115 87 -165 66 -120 131 -254 164 -340 15 -38 45 -107 66
-151 22 -45 71 -156 109 -246 38 -90 80 -189 94 -219 120 -257 254 -640 342
-979 87 -334 189 -774 235 -1015 17 -88 40 -200 50 -250 19 -92 30 -156 50
-282 9 -57 9 -80 -1 -107 -11 -29 -10 -58 4 -168 10 -73 17 -152 17 -176 0
-23 6 -58 14 -76 21 -51 31 -153 16 -171 -10 -13 -10 -23 3 -53 36 -84 44
-278 34 -817 -9 -452 -16 -608 -38 -820 -12 -110 -21 -222 -20 -250 1 -27 -5
-111 -14 -185 -64 -573 -83 -683 -121 -715 -27 -22 -53 -110 -54 -180 0 -45
-54 -282 -76 -333 -8 -18 -12 -37 -9 -42 3 -5 -1 -28 -10 -52 -8 -24 -24 -93
-35 -153 -21 -112 -48 -200 -100 -335 -16 -41 -45 -129 -65 -195 -20 -66 -45
-138 -55 -160 -11 -22 -39 -92 -64 -155 -140 -362 -243 -607 -301 -720 -13
-25 -38 -81 -56 -125 -18 -44 -62 -138 -96 -208 -35 -70 -63 -131 -63 -136 0
-11 -166 -299 -194 -336 -12 -16 -38 -59 -58 -95 -88 -162 -103 -187 -127
-213 -14 -16 -41 -35 -58 -42 -18 -8 -33 -21 -33 -30 0 -9 -18 -40 -40 -69
-22 -29 -40 -57 -40 -62 0 -5 -17 -32 -38 -59 -20 -28 -49 -69 -64 -92 -16
-24 -39 -50 -53 -59 -14 -9 -25 -24 -25 -34 0 -16 -73 -128 -129 -197 -14 -17
-42 -55 -61 -84 -19 -29 -67 -88 -105 -133 -39 -45 -124 -153 -190 -241 -66
-88 -122 -162 -125 -165 -3 -3 -23 -27 -45 -55 -50 -65 -105 -114 -127 -115
-10 0 -24 -12 -32 -27 -8 -16 -42 -55 -75 -88 -34 -33 -61 -67 -61 -75 0 -17
182 -150 411 -300 115 -75 323 -219 349 -241 23 -19 23 -19 2 -9 -12 6 -52 32
-89 58 -65 45 -123 81 -328 205 -55 33 -196 109 -314 169 -119 61 -239 130
-270 155 -31 25 -63 48 -71 51 -8 3 -29 16 -46 29 -17 13 -38 23 -46 23 -8 0
-43 18 -77 40 -34 22 -65 40 -70 40 -4 0 -16 9 -26 20 -9 10 -34 25 -54 31
-58 19 -131 59 -138 75 -6 15 -51 38 -118 59 -24 7 -40 18 -40 28 0 14 -65 67
-83 67 -4 0 -20 7 -37 16 -16 8 -39 13 -51 10 -22 -6 -50 15 -37 27 3 4 -1 7
-11 7 -9 0 -19 7 -22 15 -4 8 -17 15 -29 15 -13 0 -27 5 -30 10 -3 6 -14 10
-23 10 -10 0 -36 9 -57 20 -22 11 -51 22 -65 24 -14 1 -39 10 -57 19 -37 20
-75 13 -47 -8 12 -8 14 -14 6 -19 -17 -10 -15 -36 3 -36 8 0 15 5 15 10 0 6 5
10 11 10 6 0 8 -8 5 -18 -7 -21 15 -71 41 -94 23 -20 105 -63 170 -89 l26 -10
-20 -21 c-20 -20 -22 -20 -72 -3 -73 24 -132 59 -170 100 -17 19 -36 35 -41
35 -5 0 -35 15 -67 34 -32 18 -69 37 -83 41 -14 4 -43 22 -65 40 -22 18 -56
40 -75 50 -19 10 -41 26 -48 36 -19 27 -99 80 -157 104 -27 11 -86 42 -130 68
-44 27 -89 54 -100 60 -11 7 -39 24 -62 40 -23 15 -45 27 -49 27 -3 0 -33 18
-65 40 -32 22 -70 40 -83 40 -14 0 -26 7 -30 18 -10 28 -47 85 -64 99 -10 7
-45 29 -79 48 -35 20 -67 45 -73 55 -6 11 -16 20 -23 20 -7 0 -28 13 -47 30
-19 16 -40 29 -47 30 -7 0 -29 20 -49 45 -21 24 -56 57 -78 74 -23 16 -52 39
-66 51 -13 12 -52 38 -85 58 -60 37 -90 42 -172 32 -38 -5 -39 -7 -16 -32 40
-45 -41 -29 -97 19 -36 31 -41 40 -38 70 2 31 -1 36 -32 49 -55 24 -64 14 -56
-64 5 -61 5 -65 -9 -48 -8 11 -15 30 -15 43 0 13 -3 23 -8 23 -6 0 -42 72 -42
85 0 3 -16 19 -35 36 -19 17 -35 37 -35 45 0 8 -7 14 -15 14 -8 0 -15 4 -15
10 0 5 -6 7 -14 4 -9 -4 -39 19 -78 59 -35 35 -80 79 -101 97 l-38 33 6 -104
c3 -57 10 -120 15 -139 8 -32 30 -218 30 -258 0 -14 -2 -14 -14 -2 -8 8 -17
41 -20 72 -3 32 -9 65 -14 75 -5 10 -12 42 -15 71 -4 30 -15 79 -25 110 -11
31 -30 101 -42 155 -24 103 -40 132 -40 73 0 -20 -5 -36 -11 -36 -6 0 -9 7 -5
15 3 8 -1 27 -10 42 -20 39 -37 84 -40 110 -2 12 -10 42 -18 68 -9 25 -16 54
-16 65 0 25 -26 123 -39 148 -6 11 -15 37 -20 58 -14 54 -41 135 -52 156 -5
10 -9 24 -9 33 0 24 -105 251 -121 261 -22 13 -41 -10 -63 -80 -10 -30 -18
-11 -27 61 -20 164 -30 229 -43 277 -18 65 -29 188 -41 486 -2 52 -7 138 -11
190 -4 52 -7 155 -6 228 1 114 -1 132 -14 122 -7 -7 -20 -10 -28 -7 -10 4 -15
-6 -20 -33 -3 -21 -12 -40 -20 -43 -8 -3 -20 -23 -27 -44 -6 -21 -20 -44 -31
-51 -12 -9 -16 -20 -12 -36 4 -17 0 -25 -12 -30 -35 -13 -39 12 -11 67 31 60
57 140 57 178 0 15 9 46 19 70 25 57 34 115 35 216 1 69 4 83 19 87 17 4 25
46 8 46 -4 0 -7 18 -6 40 1 22 -2 43 -6 46 -15 9 -10 34 7 34 12 0 15 7 12 30
-4 26 -2 29 14 24 12 -3 18 0 18 9 0 8 -9 17 -20 20 -16 4 -20 14 -20 48 0 24
7 50 15 60 28 30 38 301 11 296 -5 -1 -11 4 -13 11 -3 7 4 12 19 13 22 0 22 1
3 9 -27 11 -60 74 -51 97 7 17 8 17 22 -1 16 -22 19 -21 27 15 5 18 1 30 -14
43 l-21 18 21 22 c20 21 20 24 6 54 -15 29 -12 87 4 78 4 -3 13 0 21 5 13 8
13 11 -1 19 -13 7 -15 27 -13 111 1 56 6 104 11 108 5 3 9 33 9 66 0 74 18
236 33 290 6 22 11 58 11 81 0 22 4 44 8 50 23 26 34 102 34 234 0 25 4 48 9
51 5 3 12 52 14 110 8 167 11 199 23 211 9 9 12 7 12 -6 0 -11 7 -24 15 -30 8
-6 16 -26 18 -45 3 -23 11 -37 23 -42 17 -7 17 -8 2 -8 -16 -1 -18 -11 -14
-93 6 -110 -7 -177 -36 -199 -22 -17 -24 -23 -34 -100 -5 -35 -2 -49 10 -62
15 -14 15 -22 4 -59 -7 -24 -11 -51 -10 -61 1 -10 -3 -27 -9 -38 -15 -29 -21
-136 -8 -160 6 -11 16 -18 24 -16 7 3 18 0 24 -6 13 -13 15 -69 2 -83 -6 -5
-3 -18 7 -32 17 -22 19 -23 72 -8 305 84 389 131 483 272 19 28 37 69 42 90
10 52 7 115 -7 131 -6 8 -7 24 -2 40 4 16 10 70 13 122 9 136 33 130 62 -14 6
-33 14 -53 16 -45 3 8 11 29 19 47 9 20 12 46 8 70 -4 28 1 52 19 93 14 30 30
80 36 111 15 70 18 551 5 641 -10 62 -9 66 7 57 10 -5 21 -9 26 -9 14 0 46 66
46 95 0 14 3 28 8 31 5 3 9 18 9 34 0 16 4 40 9 53 10 27 15 137 12 314 l-1
112 -35 7 -36 6 33 31 c19 18 27 32 20 35 -7 2 -10 7 -7 12 9 14 -43 60 -68
60 -14 0 -44 7 -68 16 -59 21 -130 11 -192 -27 -33 -20 -55 -28 -69 -23 -19 6
-20 11 -14 88 4 44 9 107 12 139 3 40 11 65 24 80 15 15 20 35 20 74 0 29 4
53 9 53 9 0 25 150 25 250 1 36 4 67 7 70 4 3 10 25 13 50 l7 45 -20 -23 -20
-23 3 113 c2 76 9 126 20 152 9 21 16 53 16 72 0 18 5 36 10 39 6 4 9 25 7 48
-2 23 0 53 5 67 10 26 24 171 38 375 9 143 35 372 50 450 5 28 8 77 6 110 -2
33 0 77 6 99 5 21 6 45 2 55 -4 9 -8 45 -9 81 -1 36 -6 74 -12 85 -6 11 -15
34 -20 50 -6 19 -15 29 -26 29 -22 -2 -22 22 0 30 15 6 15 8 0 23 -15 15 -15
17 0 28 15 11 14 14 -5 33 -11 11 -19 28 -19 37 1 12 -6 19 -22 20 -13 1 -36
15 -50 32 -14 17 -34 33 -43 36 -11 4 -18 16 -18 31 0 13 8 27 18 31 14 6 11
12 -22 41 -22 19 -48 34 -59 34 -10 0 -31 8 -45 19 -15 10 -38 22 -52 26 -14
4 -42 16 -62 26 -36 18 -37 21 -36 65 2 42 6 48 50 81 26 19 48 39 48 44 0 14
-16 11 -30 -6 -10 -12 -93 -55 -106 -55 -12 0 -1 31 14 42 45 31 55 88 17 88
-25 0 -34 14 -16 25 5 3 21 25 34 49 18 32 21 46 13 49 -17 7 -14 36 6 67 32
49 50 142 44 221 -12 154 -18 203 -31 223 -7 12 -16 37 -20 56 -8 40 -54 130
-67 130 -4 0 -8 -10 -8 -22 -1 -13 -11 -36 -25 -52 -29 -37 -39 -30 -92 61
-21 36 -44 75 -51 87 -7 11 -11 31 -9 43 2 12 1 21 -2 20 -3 -1 -16 8 -29 21
-12 12 -34 22 -49 22 -18 0 -38 13 -64 40 -21 22 -59 51 -83 63 -25 13 -56 38
-68 57 -26 38 -58 52 -58 26 0 -9 -4 -16 -10 -16 -5 0 -10 5 -10 12 0 6 -26
36 -58 67 -66 63 -92 100 -92 132 0 36 -172 187 -202 177 -7 -3 10 -19 38 -36
51 -32 124 -113 124 -139 0 -19 -28 -16 -57 7 -14 11 -33 20 -42 20 -22 0
-121 100 -121 123 0 10 9 21 20 24 11 3 20 10 20 15 0 12 -63 38 -95 38 -14 0
-48 11 -75 25 -27 14 -55 25 -63 25 -7 0 -24 11 -37 25 -12 13 -53 34 -89 46
-36 12 -83 30 -103 40 -46 24 -65 25 -48 4 10 -12 9 -15 -8 -15 -11 0 -25 7
-32 15 -7 8 -20 15 -29 15 -9 0 -23 9 -31 21 -8 11 -32 29 -52 40 -20 10 -41
26 -46 35 -14 25 -96 9 -110 -22 -10 -21 -16 -23 -59 -19 -32 3 -54 12 -65 25
-9 11 -19 20 -23 20 -4 0 -38 34 -77 75 -62 66 -71 73 -89 62 -15 -9 -23 -9
-37 1 -9 7 -30 20 -46 30 -16 9 -42 29 -58 43 -22 21 -42 27 -98 33 -38 3 -81
11 -96 18 -22 10 -28 10 -38 -5 -12 -15 -16 -15 -67 3 -33 13 -79 20 -120 20
-40 0 -78 6 -95 15 -16 8 -49 15 -74 15 -25 1 -56 7 -70 15 -14 8 -37 14 -52
15 -15 0 -30 5 -33 10 -4 6 -14 1 -25 -12 -16 -20 -21 -21 -44 -10 -15 7 -36
12 -46 12 -11 0 -20 5 -20 10 0 15 -73 12 -113 -5 -32 -13 -40 -13 -93 5 -32
11 -69 27 -82 36 -14 9 -27 12 -31 7 -13 -21 -55 -22 -92 -2 -21 10 -58 19
-83 19 -40 0 -46 -3 -52 -24 -3 -13 -14 -26 -25 -29 -10 -3 -19 -12 -19 -20 0
-25 30 -87 41 -87 8 0 9 -13 5 -40 -7 -45 4 -52 31 -20 31 35 113 20 113 -21
0 -11 7 -34 16 -50 8 -17 13 -37 10 -45 -8 -21 -64 -18 -78 5 -9 15 -19 18
-39 14 -21 -4 -34 1 -53 20 -14 15 -26 32 -26 40 0 10 -14 12 -72 6 -39 -5
-76 -13 -82 -19 -17 -17 -45 -11 -81 15 -38 30 -88 40 -140 31 -26 -5 -35 -11
-31 -21 6 -17 -10 -30 -19 -15 -10 16 -42 12 -61 -7 -11 -12 -54 -24 -118 -35
-56 -10 -132 -25 -171 -33 -61 -14 -147 -23 -465 -51 -36 -3 -73 -10 -82 -15
-9 -5 -28 -9 -42 -9 -14 0 -40 -9 -58 -19 -18 -11 -52 -25 -74 -31 -40 -12
-43 -11 -104 29 -41 27 -71 41 -89 39 -20 -2 -25 1 -23 15 4 21 -16 23 -25 1
-6 -17 8 -31 45 -40 29 -8 112 -87 112 -107 0 -8 -3 -35 -6 -61 -5 -36 -11
-46 -25 -46 -20 0 -27 -34 -9 -45 6 -3 10 -10 10 -16 0 -5 -4 -9 -10 -9 -5 0
-10 7 -10 15 0 11 -7 14 -25 9 -19 -5 -31 1 -55 27 -66 74 -93 97 -121 103
-23 4 -29 11 -29 31 0 14 -2 25 -3 25 -13 0 -67 -33 -67 -41 0 -5 -14 -9 -31
-9 -33 0 -63 -13 -94 -42 -11 -10 -28 -24 -38 -31 -12 -8 -20 -32 -25 -77 -6
-57 -10 -65 -26 -62 -11 2 -27 -5 -35 -16 -18 -23 -121 -102 -133 -102 -17 0
-7 -25 17 -45 23 -19 24 -23 14 -60 -6 -22 -23 -51 -39 -65 -15 -14 -31 -37
-34 -52 -5 -24 -3 -28 20 -34 24 -6 25 -8 11 -19 -10 -7 -17 -24 -17 -38 0
-32 -17 -79 -33 -89 -7 -4 -23 -8 -36 -8 -45 0 -83 -58 -48 -74 9 -5 9 -7 -1
-12 -7 -3 -19 -19 -27 -35 -9 -16 -22 -29 -29 -29 -21 0 -61 -60 -76 -112 -7
-27 -16 -48 -21 -48 -4 0 -10 -9 -14 -19 -3 -11 -15 -23 -26 -26 -12 -4 -27
-22 -35 -41 -9 -21 -21 -34 -33 -34 -10 0 -26 -9 -35 -19 -10 -11 -24 -17 -31
-15 -21 8 -28 -16 -11 -35 16 -17 15 -22 -8 -64 -13 -26 -27 -69 -31 -97 -4
-27 -10 -50 -15 -50 -16 0 -18 72 -4 127 8 31 13 61 11 67 -3 6 -8 -1 -12 -16
-4 -15 -12 -25 -19 -22 -7 3 -19 -8 -26 -23 -17 -33 -45 -63 -82 -86 -31 -20
-46 -76 -30 -112 12 -25 5 -40 -12 -26 -15 13 -9 -136 6 -167 9 -18 8 -29 -5
-56 -11 -25 -14 -43 -8 -64 5 -17 5 -36 -1 -46 -13 -23 -3 -47 17 -40 11 5 15
0 15 -18 0 -13 9 -31 20 -41 12 -10 18 -23 14 -29 -6 -9 -9 -9 -12 0 -10 31
-19 6 -19 -53 1 -61 2 -65 24 -65 17 0 23 -6 23 -21 0 -16 -4 -19 -19 -14 -18
5 -19 2 -14 -32 4 -21 13 -43 21 -49 20 -14 23 -55 7 -77 -7 -9 -32 -28 -56
-40 -40 -21 -66 -51 -39 -45 7 2 15 -3 17 -9 3 -7 0 -13 -7 -13 -6 0 -8 -5 -5
-11 4 -5 0 -18 -9 -28 -9 -10 -14 -25 -10 -35 4 -10 1 -16 -9 -16 -24 0 -28
-15 -16 -47 15 -34 18 -104 6 -120 -6 -9 1 -25 22 -48 17 -20 29 -40 26 -46
-10 -15 -22 -10 -28 11 -3 11 -21 27 -41 35 -20 9 -36 20 -36 26 0 6 -14 9
-32 7 -31 -3 -33 -5 -34 -43 -1 -22 5 -49 12 -60 14 -19 14 -19 14 4 0 20 2
21 15 11 12 -10 15 -10 15 4 0 9 5 16 10 16 13 0 13 -17 0 -25 -6 -4 -8 -21
-4 -41 6 -35 -11 -50 -22 -19 -9 21 -21 19 -27 -6 -3 -12 -10 -18 -16 -15 -12
8 -26 -38 -16 -54 3 -5 11 -7 17 -4 8 5 8 -5 2 -32 -5 -21 -9 -69 -9 -106 0
-39 -3 -62 -8 -55 -5 7 -5 -8 -1 -33 9 -57 10 -135 2 -229 -5 -55 -3 -83 9
-113 10 -25 14 -54 10 -82 -3 -23 0 -71 7 -107 8 -35 12 -82 11 -104 -2 -22 0
-44 4 -50 5 -5 16 -41 26 -80 10 -38 24 -79 31 -90 11 -18 18 -61 15 -89 -1
-6 -8 -1 -16 10 -14 18 -14 18 -15 -6 0 -40 27 -172 37 -179 8 -5 15 -87 15
-161 -1 -45 22 -169 29 -164 9 5 10 -4 13 -96 1 -30 5 -44 14 -42 8 1 12 -13
12 -46 0 -26 7 -75 16 -107 8 -33 17 -105 19 -160 2 -55 9 -115 15 -133 19
-52 8 -66 -49 -58 -30 4 -52 2 -56 -4 -3 -5 -22 -10 -42 -10 -55 0 -129 -54
-137 -99 -6 -37 1 -46 94 -123 25 -20 42 -40 38 -44 -4 -4 -23 7 -43 25 -21
18 -47 31 -63 31 -25 0 -27 -3 -25 -37 2 -21 5 -51 7 -68 3 -16 7 -50 10 -75
3 -25 9 -77 14 -117 5 -43 4 -79 -1 -89 -6 -11 -5 -19 3 -24 7 -5 10 -16 6
-25 -3 -9 1 -32 10 -50 9 -19 13 -38 11 -42 -9 -14 12 -40 21 -27 94 133 97
137 100 116 2 -11 -6 -38 -16 -59 -24 -46 -58 -162 -67 -223 -9 -69 -8 -148 8
-365 13 -174 18 -207 41 -258 15 -34 25 -75 24 -96 0 -21 3 -44 8 -52 4 -8 9
-35 9 -60 1 -49 28 -103 48 -96 6 2 16 36 22 75 10 67 37 118 56 107 4 -3 7
-34 7 -69 0 -35 5 -72 10 -83 12 -21 6 -56 -14 -88 -23 -35 -27 -97 -9 -135
33 -71 76 -130 94 -130 6 0 11 -6 11 -13 0 -23 93 -84 150 -98 30 -7 59 -16
65 -21 5 -4 35 -8 68 -8 32 0 66 -4 75 -9 9 -4 36 -11 60 -15 35 -5 43 -3 48
11 3 10 11 29 17 42 14 29 12 183 -2 210 -6 10 -15 60 -21 110 -6 50 -17 110
-26 134 -9 23 -21 63 -27 90 -6 26 -14 47 -18 47 -4 0 -11 21 -14 48 -3 26
-11 67 -17 92 -10 41 -19 64 -64 168 -8 18 -14 43 -14 57 0 13 -4 25 -10 27
-10 3 -31 84 -56 223 -8 44 -19 90 -25 102 -7 12 -9 38 -5 60 9 53 8 85 -3 96
-6 6 -5 19 1 32 9 20 6 28 -15 49 -21 21 -25 32 -21 63 3 21 7 44 10 51 5 18
21 15 21 -5 -1 -10 0 -31 1 -47 2 -29 3 -29 17 -10 14 18 14 18 15 -5 0 -19 3
-21 14 -12 8 7 14 34 15 73 1 34 3 63 5 65 9 10 35 -12 41 -34 8 -34 19 -21
21 25 0 20 4 54 9 75 6 33 5 37 -14 37 -24 0 -28 15 -6 27 20 12 33 105 14
101 -15 -3 -15 3 -4 117 9 95 12 103 30 79 15 -21 19 -16 29 42 5 34 -10 104
-23 104 -15 0 -28 -45 -23 -81 5 -44 -14 -61 -35 -33 -11 14 -13 34 -8 74 3
30 8 88 10 129 2 40 7 76 13 80 25 17 19 151 -8 151 -15 0 2 40 21 51 11 5 19
6 18 2 -1 -4 0 -24 1 -43 l2 -35 11 28 c18 44 69 34 78 -17 6 -27 29 -32 36
-7 8 31 23 15 23 -25 0 -39 15 -46 24 -10 4 15 15 26 28 28 17 2 25 14 34 49
19 75 31 86 51 44 6 -14 7 -27 2 -31 -5 -3 -9 -16 -9 -30 0 -14 4 -22 10 -19
7 4 7 -3 0 -20 -6 -15 -10 -41 -10 -59 0 -19 -7 -39 -15 -46 -17 -14 -20 -71
-4 -87 7 -7 6 -15 -5 -26 -9 -9 -16 -24 -16 -35 0 -11 -12 -31 -26 -45 -14
-15 -24 -34 -22 -44 3 -10 -2 -30 -9 -45 -7 -15 -12 -31 -12 -35 1 -4 0 -15
-4 -23 -9 -24 -20 -120 -22 -182 -1 -31 -6 -62 -12 -70 -13 -16 -32 -203 -28
-278 9 -155 15 -232 26 -332 6 -60 9 -145 6 -189 -3 -43 -1 -79 3 -79 5 0 10
6 12 12 3 7 8 -23 11 -66 4 -46 3 -84 -3 -90 -6 -8 -4 -42 5 -95 8 -46 17
-115 19 -154 4 -87 25 -187 42 -205 7 -7 16 -29 19 -50 9 -51 24 -79 46 -85
11 -3 19 -14 19 -25 0 -12 5 -24 10 -27 6 -3 10 -15 10 -26 0 -11 -4 -17 -10
-14 -14 9 -13 -28 2 -43 13 -13 22 -66 43 -261 14 -131 26 -167 51 -157 9 3
11 -5 8 -30 -2 -19 0 -34 5 -34 13 0 24 -48 22 -91 -1 -20 7 -75 18 -121 11
-47 23 -108 27 -137 4 -28 9 -51 13 -51 4 0 7 -35 7 -77 0 -46 4 -78 11 -80 6
-2 9 -21 5 -48 -3 -33 1 -53 15 -78 14 -23 20 -51 20 -91 0 -39 5 -61 14 -67
12 -8 12 -11 -1 -19 -13 -9 -7 -14 13 -11 4 0 7 -12 7 -28 0 -17 5 -33 10 -36
6 -4 8 -16 5 -26 -4 -11 -2 -26 4 -33 18 -22 15 -79 -6 -113 -28 -46 -20 -98
17 -115 25 -11 29 -17 27 -52 -1 -23 4 -41 11 -44 7 -2 12 -10 12 -18 0 -9 -4
-12 -10 -9 -5 3 -10 -1 -10 -10 0 -8 7 -18 15 -21 8 -4 15 -14 15 -24 0 -11 5
-22 10 -25 6 -3 10 -15 10 -25 0 -11 9 -34 20 -52 14 -24 20 -51 20 -97 0 -51
3 -62 15 -58 18 8 75 -59 75 -88 0 -37 -12 -64 -25 -59 -7 3 -20 23 -30 44
-10 22 -26 41 -39 44 -12 3 -29 23 -41 47 -10 22 -36 56 -57 73 -22 19 -38 42
-38 54 0 12 -9 26 -20 32 -11 6 -27 24 -35 41 -9 16 -20 27 -25 24 -13 -8 -13
-65 -1 -84 6 -10 5 -27 -5 -49 -17 -42 -17 -42 1 -42 17 0 22 -66 5 -72 -6 -2
-11 -30 -11 -63 -1 -33 -5 -68 -11 -78 -6 -12 -5 -26 5 -45 11 -22 11 -33 1
-57 -7 -17 -13 -53 -12 -81 0 -28 -4 -60 -10 -70 -15 -29 -25 -174 -12 -174 6
0 5 -9 -4 -22 -7 -13 -16 -50 -20 -83 -15 -150 -19 -165 -41 -165 -11 0 -15
11 -15 43 0 24 -3 47 -7 51 -7 7 -11 48 -13 119 -1 27 -2 27 -38 21 -49 -9
-72 -21 -72 -40 0 -8 -7 -17 -15 -20 -8 -4 -15 -12 -15 -20 0 -7 -9 -30 -20
-49 -19 -34 -29 -48 -57 -80 -7 -7 -13 -18 -13 -23 0 -5 -10 -20 -22 -33 -30
-32 -49 -75 -42 -93 3 -8 1 -17 -5 -21 -6 -3 -11 -15 -11 -26 0 -13 -4 -18
-12 -13 -8 5 -9 0 -6 -14 4 -12 3 -22 0 -22 -9 0 -32 -49 -32 -66 0 -7 -6 -17
-13 -21 -7 -4 -22 -26 -34 -48 -20 -40 -20 -41 -2 -64 22 -27 24 -42 7 -38 -8
1 -12 -7 -11 -20 2 -15 -3 -23 -13 -23 -8 0 -14 -6 -13 -12 3 -16 -11 -70 -21
-83 -17 -23 -30 -127 -29 -230 5 -250 4 -365 -3 -452 -7 -84 -21 -133 -40
-133 -8 0 -18 81 -21 172 -3 70 -12 94 -24 63 -6 -18 -7 -18 -14 1 -11 29 -11
164 1 164 6 0 10 9 10 21 0 29 -24 19 -28 -12 -2 -13 -7 -33 -13 -45 -6 -11
-9 -24 -7 -30 3 -9 -4 -14 -21 -14 -4 0 -11 37 -15 83 -8 110 -17 157 -28 157
-23 0 -75 -76 -79 -115 -1 -5 -19 -35 -40 -65 -22 -31 -39 -65 -39 -77 0 -23
-26 -51 -32 -34 -5 16 -53 -13 -50 -30 1 -9 -9 -21 -22 -28 -27 -15 -39 -56
-25 -83 7 -13 4 -20 -10 -27 -10 -6 -22 -22 -25 -36 -4 -14 -14 -25 -22 -25
-14 0 -16 9 -10 60 5 44 4 60 -5 60 -7 0 -38 -27 -70 -60 -65 -68 -92 -79 -54
-22 13 20 32 51 40 69 9 17 23 34 31 37 8 3 14 12 14 21 0 27 -52 18 -87 -15
-20 -19 -42 -30 -61 -30 -22 0 -46 -15 -91 -55 -34 -30 -66 -55 -71 -55 -6 0
-10 -6 -10 -13 0 -8 -11 -20 -25 -27 -24 -13 -35 -40 -16 -40 5 0 12 -7 15
-16 3 -8 2 -13 -2 -12 -4 2 -20 10 -36 18 -25 13 -29 13 -40 -1 -6 -9 -21 -21
-33 -28 -13 -6 -26 -24 -29 -39 -7 -28 -47 -72 -66 -72 -12 0 -34 -19 -136
-119 -61 -59 -94 -83 -167 -119 -16 -8 -46 -27 -65 -41 -19 -14 -42 -30 -51
-36 -9 -5 -42 -27 -73 -48 -31 -20 -60 -37 -65 -37 -5 0 -11 -6 -14 -14 -3 -8
-19 -17 -35 -21 -33 -7 -106 -59 -171 -122 -34 -32 -58 -45 -110 -59 -36 -9
-73 -23 -81 -29 -8 -7 -34 -23 -57 -35 -24 -13 -43 -27 -43 -31 0 -4 -27 -10
-60 -14 -41 -5 -87 -21 -146 -51 -65 -33 -104 -46 -167 -54 -45 -6 -92 -18
-105 -26 -13 -9 -35 -16 -50 -17 -15 -1 -27 -7 -27 -12 0 -21 -16 -33 -62 -45
-27 -7 -61 -19 -78 -26 -37 -16 -202 -64 -222 -64 -8 0 -33 -10 -56 -21 -108
-55 -136 -67 -192 -83 -85 -25 -153 -58 -158 -78 -3 -10 -11 -18 -19 -18 -11
0 -11 2 1 9 10 6 10 10 1 16 -6 4 -19 0 -29 -9 -10 -9 -30 -16 -45 -16 -15 0
-44 -9 -66 -20 -22 -11 -46 -20 -55 -20 -9 0 -30 -7 -46 -16 -26 -13 -28 -18
-18 -30 10 -13 10 -17 -2 -25 -20 -13 -29 -11 -29 6 0 8 -7 15 -15 15 -25 0
-17 -28 13 -39 23 -9 21 -10 -17 -5 -35 5 -43 3 -39 -7 3 -8 0 -20 -8 -26 -10
-10 -14 -9 -19 7 -8 24 -47 27 -65 5 -9 -10 -9 -15 -1 -15 6 0 11 -5 11 -10 0
-6 -7 -6 -19 1 -20 13 -56 5 -47 -10 7 -11 -30 -45 -42 -37 -5 3 -12 -3 -15
-15 -4 -16 -11 -18 -31 -13 -16 4 -26 2 -26 -5 0 -6 -17 -11 -39 -11 -22 0
-44 -6 -51 -15 -7 -8 -27 -15 -44 -15 -19 0 -54 -14 -86 -35 -30 -19 -61 -35
-68 -35 -7 0 -20 -4 -30 -9 -9 -5 -42 -21 -72 -37 -132 -66 -247 -128 -269
-145 -13 -11 -33 -19 -44 -19 -16 0 -17 2 -7 16 8 8 27 21 44 28 17 7 53 32
81 55 27 22 68 50 90 61 46 24 122 68 156 91 23 16 23 18 8 43 -8 15 -85 98
-170 185 -214 219 -305 317 -325 349 -9 15 -39 46 -66 70 -40 34 -56 42 -89
42 -22 0 -48 4 -58 9 -9 6 -41 48 -71 96 -70 112 -92 135 -120 128 -16 -4 -21
-3 -16 5 4 7 3 12 -3 12 -14 0 -61 101 -61 131 0 13 -7 33 -15 43 -8 11 -15
26 -15 34 0 8 -24 51 -54 95 -29 45 -61 97 -70 115 -9 17 -71 119 -138 225
-66 105 -161 260 -211 342 -49 83 -131 218 -182 300 -158 256 -201 329 -263
446 -82 155 -222 463 -289 639 -31 80 -60 150 -65 157 -5 7 -16 36 -23 65 -7
29 -34 118 -60 198 -25 80 -49 177 -53 217 -4 40 -14 79 -23 90 -8 10 -23 36
-34 58 -10 22 -27 57 -38 78 -15 31 -20 65 -23 166 -4 132 -14 192 -59 351
-14 52 -30 122 -35 155 -19 134 -62 355 -86 435 -14 47 -33 110 -41 140 -9 30
-20 62 -24 70 -7 15 -21 79 -38 170 -13 70 -29 142 -40 177 -5 18 -8 45 -6 60
3 15 4 62 4 103 -1 41 -1 95 -1 120 1 25 -8 90 -18 145 -11 59 -21 178 -25
290 -10 285 -14 342 -24 383 -17 64 -24 152 -27 332 -2 96 -5 227 -9 290 -5
118 16 550 36 720 6 52 22 157 35 232 13 76 24 161 24 188 0 28 6 83 14 123 8
40 19 113 26 162 7 50 17 110 21 135 5 25 16 83 24 130 9 47 22 112 30 145 8
33 21 94 29 135 24 120 75 339 97 420 39 139 166 534 197 610 50 125 62 160
62 179 0 11 16 50 35 87 19 37 35 77 35 88 0 27 111 308 173 436 54 113 127
285 127 299 0 5 23 58 50 116 28 58 50 108 50 110 0 10 219 453 271 548 207
376 524 853 729 1097 41 49 251 314 323 408 38 49 337 389 468 532 58 63 164
169 234 235 70 66 147 138 170 160 41 40 179 164 244 221 18 16 43 38 55 49
61 54 140 122 229 195 56 47 94 86 91 92 -4 7 -2 8 5 4 15 -9 73 32 65 46 -5
7 -2 8 6 3 10 -6 12 -4 7 8 -4 11 -2 14 7 11 17 -7 206 137 201 153 -2 6 3 14
11 17 8 3 14 0 14 -6 0 -7 5 -6 15 2 8 7 12 16 9 21 -3 5 -2 14 2 20 4 8 9 7
15 -2 6 -11 14 -9 36 8 15 12 27 26 25 33 -1 6 2 9 8 5 5 -3 15 -3 21 1 8 4 7
9 -2 15 -11 7 -9 9 6 10 11 1 24 1 29 0 5 -1 6 6 2 15 -5 12 -2 15 10 10 9 -4
24 0 33 8 9 8 48 35 86 61 39 26 59 44 45 41 -19 -6 -21 -5 -10 3 8 6 25 11
38 11 12 0 22 6 22 13 0 7 9 13 20 14 11 1 28 9 37 19 16 16 16 16 -7 10 -24
-7 65 48 125 78 17 8 39 24 49 35 10 11 23 18 28 15 5 -4 18 3 28 14 10 11 39
35 65 53 33 24 42 35 33 42 -9 5 -4 7 15 4 21 -3 27 0 27 14 0 13 5 16 16 12
10 -4 25 4 40 22 13 15 35 29 48 30 32 4 48 14 41 26 -3 5 0 6 8 3 9 -3 16 3
20 15 3 12 10 21 16 21 6 0 8 -7 4 -17 -6 -14 -3 -14 25 2 23 14 28 22 19 28
-7 5 -3 6 11 2 13 -4 22 -2 22 4 0 6 11 13 25 17 14 3 23 10 20 14 -7 12 61
44 74 35 7 -3 8 0 5 9 -4 11 0 16 13 16 31 0 72 23 77 44 4 17 7 17 21 6 14
-11 16 -11 13 1 -2 8 7 15 20 17 12 2 27 12 33 23 5 11 15 17 20 13 6 -3 19 2
29 11 16 15 22 15 35 5 13 -10 15 -9 15 8 0 20 38 38 69 33 7 -1 10 2 7 7 -6
10 69 52 92 52 7 0 12 5 12 10 0 6 6 10 14 10 8 0 27 5 43 11 15 7 42 13 58
15 17 3 37 14 46 26 10 12 28 21 47 22 17 0 30 6 29 11 -1 6 10 9 26 8 15 -1
27 2 27 8 0 5 6 9 14 9 7 0 19 6 25 14 14 16 61 27 61 14 0 -5 7 -3 15 6 8 8
15 19 15 24 0 6 9 8 20 5 11 -3 26 0 33 6 8 6 17 8 20 4 4 -3 7 3 7 15 0 19 2
21 20 10 10 -7 23 -9 27 -5 4 5 2 12 -6 16 -8 5 0 10 24 14 21 3 45 13 54 20
22 20 130 59 142 51 6 -3 16 0 24 6 8 7 21 10 29 7 10 -4 13 -1 9 9 -3 8 1 14
11 14 9 0 16 4 16 9 0 12 50 28 115 37 28 4 55 14 61 22 6 9 27 16 48 16 22 1
36 6 36 14 0 7 14 12 35 12 19 0 35 5 35 10 0 6 8 10 18 10 10 0 22 4 28 9 17
16 158 55 199 56 32 0 40 4 39 18 -1 10 5 17 15 17 9 0 22 5 28 11 8 8 16 7
30 -2 15 -9 24 -9 39 0 17 11 16 12 -8 6 -16 -3 -28 -1 -28 4 0 10 90 35 98
26 3 -3 0 -5 -6 -5 -7 0 -12 -4 -12 -10 0 -11 29 -2 51 17 9 8 24 11 34 7 12
-5 16 -4 12 3 -9 15 34 24 73 17 25 -5 34 -2 46 15 8 11 23 21 32 21 15 0 15
-2 2 -10 -11 -7 -7 -10 18 -10 29 0 48 19 20 21 -38 2 118 41 170 43 17 1 32
3 32 6 0 4 15 4 34 2 27 -3 37 1 48 17 7 12 16 21 21 21 4 0 5 -4 2 -10 -3 -5
3 -10 15 -10 12 0 19 4 16 9 -6 10 24 25 32 16 3 -3 0 -5 -6 -5 -7 0 -12 -4
-12 -9 0 -5 12 -6 28 -1 50 15 122 30 147 30 13 0 27 5 30 10 3 6 26 10 50 10
35 0 47 5 55 21 9 16 14 18 25 9 11 -9 28 -9 72 1 32 7 60 15 63 18 3 3 16 7
30 8 21 2 105 12 310 38 19 2 62 7 95 11 33 4 65 10 70 15 6 4 59 9 118 10 59
1 107 6 107 11 0 4 7 8 16 8 8 0 12 -4 9 -10 -10 -16 47 -12 59 5 8 10 39 17
101 21 50 3 94 9 99 12 11 6 173 19 354 28 72 4 132 11 132 15 0 5 7 9 15 9 8
0 15 -5 15 -11z m94 -3682 c3 -12 3 -23 0 -26 -8 -9 -47 37 -40 48 10 15 33 3
40 -22z m56 -18 c0 -24 -23 -21 -28 4 -2 10 3 17 12 17 10 0 16 -9 16 -21z
m1300 -199 c0 -5 -7 -10 -15 -10 -8 0 -15 5 -15 10 0 6 7 10 15 10 8 0 15 -4
15 -10z m-2964 -365 c7 -29 -1 -45 -25 -45 -36 0 -56 51 -29 78 16 16 46 -2
54 -33z m98 -67 c3 -13 1 -27 -3 -31 -14 -14 -31 2 -31 29 0 30 26 32 34 2z
m3809 -83 c7 -18 -6 -27 -27 -19 -17 7 -20 16 -9 27 11 12 31 8 36 -8z m-123
-21 c0 -9 -5 -14 -12 -12 -18 6 -21 28 -4 28 9 0 16 -7 16 -16z m204 -24 c7
-17 16 -27 21 -23 4 5 6 2 3 -6 -2 -8 -10 -17 -18 -19 -7 -3 -10 0 -6 7 4 6
-3 15 -17 20 -29 11 -41 27 -32 41 12 20 36 10 49 -20z m1159 -776 c-3 -8 -9
-14 -13 -14 -14 0 -22 20 -16 37 5 12 9 13 21 3 7 -6 11 -18 8 -26z m-79 -50
c11 -28 7 -76 -6 -72 -20 7 -31 34 -24 61 7 30 21 35 30 11z m56 -136 c30 -59
31 -65 19 -106 -11 -40 -32 -63 -45 -49 -3 3 -7 36 -8 74 -1 37 -9 78 -16 90
-11 18 -12 24 -1 37 8 9 15 16 16 16 2 0 17 -28 35 -62z m-85 -127 c3 -5 1
-12 -5 -16 -5 -3 -10 1 -10 9 0 18 6 21 15 7z m115 -80 c0 -6 -11 -23 -25 -38
-20 -23 -24 -25 -25 -10 0 27 18 57 35 57 8 0 15 -4 15 -9z m220 -656 c0 -8
-4 -15 -10 -15 -5 0 -10 7 -10 15 0 8 5 15 10 15 6 0 10 -7 10 -15z m181
-1308 c-13 -13 -15 15 -3 53 7 24 7 23 10 -9 2 -18 -1 -38 -7 -44z m-7182
-555 c1 -7 -3 -10 -9 -7 -5 3 -10 21 -9 38 1 31 1 31 9 7 4 -14 8 -31 9 -38z
m48 -64 c-3 -8 -6 -5 -6 6 -1 11 2 17 5 13 3 -3 4 -12 1 -19z m52 -385 c1 -50
6 -95 11 -98 16 -10 12 -65 -4 -65 -10 0 -19 20 -26 57 -7 31 -17 67 -23 80
-7 15 -7 31 1 50 6 15 14 46 17 68 11 63 23 17 24 -92z m578 -345 c-3 -11 0
-21 8 -24 7 -3 11 -14 8 -25 -6 -22 -19 -25 -27 -6 -4 6 -4 -5 -2 -25 l4 -36
-29 10 c-33 11 -50 31 -23 26 14 -2 20 4 22 22 6 46 23 90 34 84 5 -3 7 -15 5
-26z m103 -20 c0 -7 3 -23 6 -35 7 -24 -2 -29 -25 -14 -12 8 -12 12 -2 25 7 8
10 20 6 26 -3 5 -1 10 4 10 6 0 11 -6 11 -12z m130 -18 c0 -5 -5 -10 -11 -10
-5 0 -7 5 -4 10 3 6 8 10 11 10 2 0 4 -4 4 -10z m-180 -90 c0 -11 -4 -20 -10
-20 -5 0 -10 9 -10 20 0 11 5 20 10 20 6 0 10 -9 10 -20z m-160 -65 c0 -8 -4
-15 -10 -15 -5 0 -7 7 -4 15 4 8 8 15 10 15 2 0 4 -7 4 -15z m-541 -584 c11
-11 25 -30 31 -43 10 -18 5 -16 -24 11 -33 32 -45 51 -31 51 3 0 14 -9 24 -19z
m6793 -338 c8 -32 3 -83 -7 -84 -13 -1 -30 64 -22 85 8 21 24 20 29 -1z m-10
-205 c10 -12 14 -24 9 -27 -9 -6 -32 -94 -32 -123 0 -24 -27 -44 -41 -30 -5 5
-7 16 -2 23 4 7 7 33 5 57 -2 42 -1 44 21 37 23 -7 23 -7 3 9 -19 16 -20 16
-1 31 11 8 16 21 13 30 -9 22 2 19 25 -7z m-60 -263 c3 -14 2 -25 -2 -25 -4 0
-7 -7 -6 -16 2 -26 -21 -28 -34 -4 -9 17 -8 26 5 46 20 31 31 31 37 -1z m-52
-165 c0 -5 -4 -10 -10 -10 -5 0 -10 5 -10 10 0 6 5 10 10 10 6 0 10 -4 10 -10z
m-6104 -4308 c-9 -8 -26 10 -26 26 1 15 2 15 15 -2 8 -11 13 -21 11 -24z
m6614 -732 c0 -5 -4 -10 -9 -10 -6 0 -13 5 -16 10 -3 6 1 10 9 10 9 0 16 -4
16 -10z m-93 -372 c-3 -8 -6 -5 -6 6 -1 11 2 17 5 13 3 -3 4 -12 1 -19z m496
-24 c-4 -10 -9 -12 -15 -6 -12 12 -1 35 12 27 5 -3 6 -13 3 -21z m2367 -1149
c13 -14 29 -24 36 -21 18 7 25 -5 13 -20 -18 -22 37 -49 97 -47 35 1 65 -5 90
-18 42 -21 41 -22 -27 -19 -26 1 -50 -3 -53 -8 -6 -11 -59 -2 -91 15 -11 6
-42 14 -70 18 -47 7 -61 11 -94 33 -16 12 -1 47 33 74 28 24 38 22 66 -7z
m503 -248 c9 -1 17 -4 17 -7 0 -3 18 -4 40 -2 32 3 40 1 40 -12 0 -9 6 -16 13
-16 8 0 22 -10 33 -22 19 -21 19 -21 -6 -14 -14 3 -38 9 -55 13 -16 4 -36 13
-44 20 -7 8 -22 11 -33 7 -12 -3 -27 1 -37 11 -10 8 -22 15 -27 14 -21 -4 -28
2 -14 11 8 6 24 8 35 4 11 -3 28 -6 38 -7z m-14418 -257 c3 -5 1 -10 -4 -10
-6 0 -11 5 -11 10 0 6 2 10 4 10 3 0 8 -4 11 -10z m-605 -315 c0 -2 -10 -10
-22 -16 -21 -11 -22 -11 -9 4 13 16 31 23 31 12z m16365 -153 c-3 -3 -11 0
-18 7 -9 10 -8 11 6 5 10 -3 15 -9 12 -12z m-16785 -226 c0 -10 -134 -132
-158 -145 -15 -7 -56 -44 -91 -82 -61 -66 -183 -172 -207 -180 -11 -4 -67 -50
-141 -116 -20 -18 -40 -33 -44 -33 -12 0 -11 17 1 25 20 12 9 25 -20 25 -16 0
-30 5 -30 12 0 21 77 85 156 128 44 24 119 78 167 121 159 141 367 279 367
245z m17328 -132 c26 -15 81 -45 122 -67 143 -76 327 -196 266 -173 -20 7 -20
6 -1 -14 10 -11 24 -19 31 -16 6 2 46 -15 87 -39 80 -47 124 -92 108 -108 -18
-18 -214 107 -384 246 -53 42 -98 77 -101 77 -3 0 -47 27 -98 60 -96 62 -112
80 -30 34z m-18071 -412 c-9 -10 -32 -24 -52 -32 -47 -19 -45 -34 4 -26 67 10
55 -11 -26 -48 -43 -20 -90 -43 -105 -51 -15 -7 -30 -10 -33 -5 -9 15 95 119
150 151 59 34 87 39 62 11z m18849 -57 c27 -14 69 -43 94 -66 41 -37 42 -39
13 -24 -30 14 -32 14 -26 -2 5 -12 3 -14 -7 -8 -8 5 -25 9 -38 10 -20 1 -31 9
-44 35 -2 3 -20 18 -40 33 -68 50 -37 65 48 22z"/>
<path d="M23790 35309 c0 -5 5 -7 10 -4 6 3 10 8 10 11 0 2 -4 4 -10 4 -5 0
-10 -5 -10 -11z"/>
<path d="M22190 35050 c0 -13 11 -13 30 0 12 8 11 10 -7 10 -13 0 -23 -4 -23
-10z"/>
<path d="M21528 34853 c7 -3 16 -2 19 1 4 3 -2 6 -13 5 -11 0 -14 -3 -6 -6z"/>
<path d="M21465 34830 c-3 -5 1 -10 9 -10 9 0 16 5 16 10 0 6 -4 10 -9 10 -6
0 -13 -4 -16 -10z"/>
<path d="M21120 34720 c0 -5 7 -10 15 -10 8 0 15 5 15 10 0 6 -7 10 -15 10 -8
0 -15 -4 -15 -10z"/>
<path d="M21080 34700 c0 -5 4 -10 9 -10 6 0 13 5 16 10 3 6 -1 10 -9 10 -9 0
-16 -4 -16 -10z"/>
<path d="M27950 30409 c0 -6 9 -13 19 -16 19 -5 72 -71 84 -106 6 -17 8 -17
23 -3 14 15 13 20 -17 54 -34 39 -87 82 -101 82 -4 0 -8 -5 -8 -11z"/>
<path d="M28595 28740 c3 -5 8 -10 11 -10 2 0 4 5 4 10 0 6 -5 10 -11 10 -5 0
-7 -4 -4 -10z"/>
<path d="M21325 28720 c-3 -5 -1 -10 4 -10 6 0 11 5 11 10 0 6 -2 10 -4 10 -3
0 -8 -4 -11 -10z"/>
<path d="M21260 28560 c0 -5 5 -10 10 -10 6 0 10 5 10 10 0 6 -4 10 -10 10 -5
0 -10 -4 -10 -10z"/>
<path d="M22125 26150 c-3 -5 -4 -14 0 -20 8 -13 35 -1 35 16 0 16 -26 19 -35
4z"/>
<path d="M22055 26142 c-5 -4 -15 -16 -22 -27 -6 -11 -16 -19 -22 -17 -6 1
-11 -10 -11 -25 0 -20 3 -24 11 -16 6 6 18 9 25 6 10 -4 14 3 14 22 0 22 3 26
23 21 12 -3 16 -3 10 0 -9 4 -10 11 -3 25 11 20 -4 27 -25 11z"/>
<path d="M22048 26015 c2 -14 8 -25 13 -25 5 0 9 -10 10 -22 0 -13 3 -17 6
-10 2 6 11 12 19 12 8 0 14 7 14 15 0 8 -7 15 -15 15 -8 0 -15 9 -15 20 0 13
-7 20 -19 20 -14 0 -17 -6 -13 -25z"/>
<path d="M22077 25904 c-11 -11 -8 -72 3 -79 6 -3 10 5 10 19 0 13 6 26 13 29
9 3 8 9 -4 21 -8 9 -18 13 -22 10z"/>
<path d="M21960 25136 c0 -20 4 -35 9 -31 10 6 8 51 -2 62 -4 3 -7 -10 -7 -31z"/>
<path d="M21938 25070 c3 -26 9 -40 18 -40 17 0 19 51 2 68 -20 20 -24 14 -20
-28z"/>
<path d="M19831 18726 c-14 -14 -21 -29 -18 -33 9 -9 50 34 45 48 -2 6 -14 -1
-27 -15z"/>
<path d="M19775 18690 c4 -6 11 -8 16 -5 14 9 11 15 -7 15 -8 0 -12 -5 -9 -10z"/>
<path d="M33990 16596 c0 -2 18 -15 40 -30 22 -14 40 -23 40 -19 0 5 -16 18
-35 31 -34 21 -45 26 -45 18z"/>
</g>
</svg>
